<svg width="80" height="80" viewBox="0 0 80 80" version="1.1" xmlns="http://www.w3.org/2000/svg" xmlns:xlink="http://www.w3.org/1999/xlink">
<title>53579</title>
<desc>Created using Figma</desc>
<g id="Canvas" transform="translate(57 1273)">
<g id="53579">
<g id="Group">
<g id="Right">
<g id="Group">
<g id="Vector">
<use xlink:href="#path0_fill" transform="matrix(-1 -1.35477e-16 1.11733e-16 -1 23 -1193)"/>
</g>
</g>
</g>
</g>
</g>
</g>
<defs>
<path id="path0_fill" d="M 36.285 23.4875L 36.2775 23.4975C 35.6076 22.8825 34.7276 22.5 33.7501 22.5C 31.6801 22.5 30 24.18 30 26.2501C 30 27.3451 30.475 28.32 31.2225 29.0051L 31.215 29.0152L 43.2 40L 31.2149 50.9876L 31.2224 50.9975C 30.4749 51.68 29.9999 52.655 29.9999 53.7501C 29.9999 55.8201 31.6799 57.5001 33.7499 57.5001C 34.7275 57.5001 35.6075 57.1176 36.2774 56.5052L 36.2848 56.5152L 51.2848 42.7651C 52.0574 42.0526 52.4999 41.0526 52.4999 40.0001C 52.4999 38.9477 52.0574 37.9476 51.2848 37.2352L 36.285 23.4875ZM 40 0C 17.9101 0 0 17.9101 0 40C 0 62.0899 17.9101 80 40 80C 62.0899 80 80 62.0899 80 40C 80 17.9101 62.0899 0 40 0ZM 40 72.5C 22.08 72.5 7.5 57.92 7.5 40C 7.5 22.08 22.08 7.5 40 7.5C 57.92 7.5 72.5 22.08 72.5 40C 72.5 57.92 57.92 72.5 40 72.5Z"/>
</defs>
</svg>
