<svg width="131" height="242" viewBox="0 0 131 242" version="1.1" xmlns="http://www.w3.org/2000/svg" xmlns:xlink="http://www.w3.org/1999/xlink">
<title>Website Logo</title>
<desc>Created using Figma</desc>
<g id="Canvas" transform="translate(82 1552)">
<g id="Website Logo">
<g id="Vector">
<use xlink:href="#path0_fill" transform="translate(-78.4595 -1540.47)"/>
</g>
<g id="Vector">
<use xlink:href="#path1_fill" transform="translate(-63.5577 -1539.71)"/>
</g>
<g id="Vector">
<use xlink:href="#path2_fill" transform="translate(-82 -1552)" fill="#E2E2E2"/>
</g>
<g id="Vector">
<use xlink:href="#path3_fill" transform="translate(-67.116 -1551.24)" fill="#E2E2E2"/>
</g>
</g>
</g>
<defs>
<path id="path0_fill" d="M 6.19595 179.81C 4.55268 179.81 2.97672 179.156 1.81475 177.992C 0.652785 176.828 1.57232e-15 175.249 7.86158e-16 173.602L 7.86158e-16 6.20831C 0 4.56176 0.652785 2.98266 1.81475 1.81837C 2.97672 0.654088 4.55268 2.02996e-07 6.19595 2.02996e-07C 7.83921 2.02996e-07 9.41518 0.654088 10.5771 1.81837C 11.7391 2.98266 12.3919 4.56176 12.3919 6.20831L 12.3919 173.602C 12.3919 175.249 11.7391 176.828 10.5771 177.992C 9.41518 179.156 7.83921 179.81 6.19595 179.81Z"/>
<path id="path1_fill" d="M 106.362 229.708L 17.2286 229.708C 13.8295 229.719 10.5034 228.719 7.67178 226.835C 4.84016 224.951 2.63037 222.267 1.32232 219.123C 0.0142657 215.98 -0.333194 212.518 0.323952 209.176C 0.981097 205.834 2.61328 202.763 5.01376 200.352L 95.2975 109.888C 95.9605 109.217 96.4109 108.365 96.5921 107.438C 96.7733 106.512 96.6772 105.553 96.3159 104.681C 95.9546 103.809 95.3443 103.064 94.5615 102.538C 93.7787 102.013 92.8585 101.731 91.9163 101.728L 17.4056 101.728C 13.9715 101.741 10.6124 100.721 7.76238 98.8016C 4.91234 96.8818 2.70227 94.1498 1.41765 90.9586C 0.133023 87.7674 -0.167127 84.2635 0.555968 80.8996C 1.27906 77.5357 2.99218 74.4663 5.47403 72.088L 77.1346 1.77444C 78.3083 0.621855 79.891 -0.0163153 81.5343 0.000317346C 83.1777 0.01695 84.7471 0.687021 85.8974 1.86313C 87.0477 3.03923 87.6846 4.62502 87.668 6.27165C 87.6514 7.91828 86.9827 9.49086 85.8089 10.6434L 14.0952 80.9924C 13.3996 81.6528 12.9181 82.5075 12.7133 83.4455C 12.5085 84.3836 12.5898 85.3616 12.9467 86.2528C 13.3035 87.1439 13.9195 87.907 14.7147 88.4429C 15.5098 88.9789 16.4474 89.263 17.4056 89.2584L 92.0579 89.2584C 95.4466 89.2716 98.7555 90.2891 101.568 92.1828C 104.381 94.0765 106.571 96.7618 107.864 99.9004C 109.157 103.039 109.494 106.491 108.833 109.821C 108.172 113.151 106.542 116.211 104.149 118.615L 13.8651 209.079C 13.2021 209.749 12.7517 210.601 12.5705 211.528C 12.3894 212.454 12.4854 213.414 12.8467 214.285C 13.208 215.157 13.8184 215.903 14.6012 216.428C 15.3839 216.953 16.3042 217.235 17.2463 217.238L 106.362 217.238C 108.005 217.238 109.581 217.892 110.743 219.057C 111.905 220.221 112.558 221.8 112.558 223.446C 112.558 225.093 111.905 226.672 110.743 227.836C 109.581 229.001 108.005 229.655 106.362 229.655L 106.362 229.708Z"/>
<path id="path2_fill" d="M 6.19595 179.81C 4.55268 179.81 2.97672 179.156 1.81475 177.992C 0.652785 176.828 5.89618e-16 175.249 0 173.602L 0 6.20831C 2.44866e-08 4.56176 0.652785 2.98265 1.81475 1.81837C 2.97672 0.654088 4.55268 4.75771e-09 6.19595 4.75771e-09C 7.83921 4.75771e-09 9.41518 0.654088 10.5771 1.81837C 11.7391 2.98265 12.3919 4.56176 12.3919 6.20831L 12.3919 173.602C 12.3919 175.249 11.7391 176.828 10.5771 177.992C 9.41518 179.156 7.83921 179.81 6.19595 179.81Z"/>
<path id="path3_fill" d="M 106.379 229.708L 17.2464 229.708C 13.8436 229.723 10.5131 228.724 7.67765 226.839C 4.84221 224.954 2.62969 222.267 1.3209 219.12C 0.0121183 215.973 -0.333908 212.507 0.326743 209.162C 0.987393 205.817 2.62493 202.744 5.03151 200.334L 95.3153 109.87C 95.9783 109.199 96.4287 108.347 96.6098 107.421C 96.791 106.494 96.695 105.535 96.3337 104.663C 95.9724 103.791 95.362 103.046 94.5792 102.521C 93.7965 101.995 92.8762 101.713 91.9341 101.71L 17.4234 101.71C 13.993 101.719 10.6385 100.699 7.79246 98.7796C 4.94639 96.8607 2.73915 94.1316 1.45527 90.9441C 0.1714 87.7567 -0.130257 84.257 0.589188 80.8961C 1.30863 77.5353 3.0162 74.4674 5.49178 72.088L 77.1523 1.77444C 78.3261 0.621854 79.9087 -0.0163155 81.5521 0.000317134C 83.1954 0.0169498 84.7649 0.687022 85.9152 1.86313C 87.0654 3.03923 87.7023 4.62503 87.6857 6.27165C 87.6691 7.91828 87.0004 9.49086 85.8266 10.6434L 14.113 80.9924C 13.4173 81.6528 12.9358 82.5075 12.731 83.4455C 12.5262 84.3836 12.6075 85.3616 12.9644 86.2528C 13.3213 87.1439 13.9373 87.907 14.7324 88.4429C 15.5275 88.9789 16.4651 89.263 17.4234 89.2584L 92.0757 89.2584C 95.4643 89.2716 98.7733 90.2891 101.586 92.1828C 104.399 94.0765 106.589 96.7618 107.882 99.9004C 109.175 103.039 109.512 106.491 108.85 109.821C 108.189 113.151 106.56 116.211 104.167 118.615L 13.8829 209.203C 13.2199 209.874 12.7695 210.726 12.5883 211.652C 12.4071 212.578 12.5032 213.538 12.8645 214.41C 13.2258 215.282 13.8361 216.027 14.6189 216.552C 15.4017 217.078 16.3219 217.359 17.2641 217.362L 106.379 217.362C 108.023 217.362 109.599 218.016 110.761 219.181C 111.923 220.345 112.575 221.924 112.575 223.571C 112.575 225.217 111.923 226.796 110.761 227.961C 109.599 229.125 108.023 229.779 106.379 229.779L 106.379 229.708Z"/>
</defs>
</svg>
